<svg id="Layer_1" height="512" viewBox="0 0 512 512" width="512" xmlns="http://www.w3.org/2000/svg" data-name="Layer 1"><path d="m218.417 209.314a52.855 52.855 0 0 0 -13.765 14.306 6 6 0 1 0 10.051 6.557 40.9 40.9 0 0 1 10.653-11.077 6 6 0 0 0 -6.939-9.79z"/><path d="m109.75 466.605h-43.98v-274.861c0-.1.014-.192.014-.29 0-47.453 36.608-86.059 81.605-86.059 43.257 0 78.743 35.686 81.422 80.605a52.944 52.944 0 0 0 -46.694 52.5v9.375a6 6 0 0 0 6 6h26.7c2.652 9.6 11.228 16.691 21.272 16.691s18.619-7.087 21.27-16.691h24.509a6 6 0 0 0 6-6v-9.375a52.946 52.946 0 0 0 -47.025-52.544c-2.731-51.523-43.6-92.563-93.453-92.563-51.442 0-93.32 43.7-93.6 97.521-.01.139-.021.278-.021.419v275.27h-37.769a6 6 0 0 0 0 12h93.75a6 6 0 0 0 0-12zm126.338-208.037a9.941 9.941 0 0 1 -8.283-4.691h16.565a9.941 9.941 0 0 1 -8.282 4.691zm39.779-20.068v3.375h-81.75v-3.375a40.875 40.875 0 0 1 81.75 0z"/><path d="m473.663 373.9v-39.7a25.286 25.286 0 0 0 -25.451-25.06h-109.794a25.216 25.216 0 0 0 -18 7.428c-.494.5-.959 1.014-1.406 1.544a25.564 25.564 0 0 0 -19.494-8.972h-110.418a25.287 25.287 0 0 0 -25.452 25.06v39.814a29.012 29.012 0 0 0 -26.454 28.657v69.937a6 6 0 0 0 6 6h46.519a6 6 0 0 0 6-6v-7.993l247.769.076v7.917a6 6 0 0 0 6 6h46.518a6 6 0 0 0 6-6v-69.94a29.039 29.039 0 0 0 -28.337-28.768zm-144.745-48.866a13.3 13.3 0 0 1 9.5-3.9h109.794a13.275 13.275 0 0 1 13.451 13.06v41.829a28.838 28.838 0 0 0 -18.181 26.642v2.35l-118.482-.03.015-70.187a13.616 13.616 0 0 1 3.903-9.764zm-139.818-3.9h110.416a13.275 13.275 0 0 1 13.451 13.066l.027 70.782-117.281-.032v-2.281a28.884 28.884 0 0 0 -20.065-27.327v-41.142a13.276 13.276 0 0 1 13.452-13.063zm-5.387 145.468h-34.519v-63.934a17.266 17.266 0 0 1 34.519 0zm12-13.993v-35.66l123.278.034h.009l124.481.035v35.67zm294.287 13.996h-34.518v-63.937a17.265 17.265 0 0 1 34.518 0z"/></svg>